<?xml version="1.0" encoding="UTF-8"?>
<svg version="1.1" xmlns="http://www.w3.org/2000/svg" width="637" height="974">
<path d="M0 0 C1.40165861 0.19555707 2.80335277 0.39085941 4.20507812 0.5859375 C21.31542255 3.00332002 38.16694265 6.27156823 54.9375 10.4375 C56.00321228 10.70001556 56.00321228 10.70001556 57.0904541 10.96783447 C69.32201323 14.01057295 80.99289306 17.99763102 93 22 C93 72.16 93 122.32 93 174 C85.41 170.7 77.82 167.4 70 164 C40.66828675 152.40374127 11.29753468 144.26687589 -20 140 C-21.22493164 139.82210937 -21.22493164 139.82210937 -22.47460938 139.640625 C-107.21101553 127.66777703 -196.97589384 154.2168826 -265.10546875 204.55566406 C-269.15161285 207.60668651 -273.09376971 210.77263719 -277 214 C-277.52287598 214.42667969 -278.04575195 214.85335937 -278.58447266 215.29296875 C-297.50288527 230.7574214 -314.94074786 247.83013454 -329.71630859 267.31787109 C-330.97821684 268.97145569 -332.26040657 270.6068471 -333.55078125 272.23828125 C-344.39613404 286.00135533 -353.48428118 300.70219412 -362 316 C-362.4552002 316.81178711 -362.91040039 317.62357422 -363.37939453 318.45996094 C-407.1055492 397.02723991 -415.38759418 492.19942383 -391.078125 582.26220703 C-378.34579535 626.40440971 -356.57152238 668.71843484 -327 704 C-326.13869739 705.0515713 -325.27803168 706.10366455 -324.41796875 707.15625 C-309.30232634 725.49522438 -292.61173193 742.36471586 -273.66015625 756.72949219 C-272.06944917 757.94685096 -270.50280721 759.19546261 -268.9375 760.4453125 C-255.1902261 771.35195072 -240.26235398 780.67324882 -224.83105469 789 C-223.10471861 789.94280967 -221.39917482 790.92340743 -219.6953125 791.90625 C-184.42779475 811.77986277 -143.84864724 822.56732826 -104 828 C-103.18337891 828.11859375 -102.36675781 828.2371875 -101.52539062 828.359375 C-36.53547282 837.54213883 31.6147969 823.12398817 90.12768555 794.85107422 C92 794 92 794 93 794 C93 844.16 93 894.32 93 946 C67.86785191 954.3773827 67.86785191 954.3773827 54.9375 957.5625 C53.80870422 957.84290131 53.80870422 957.84290131 52.65710449 958.12896729 C35.94106854 962.25208216 19.10696862 965.34016665 2.05786133 967.71289062 C0.13075177 967.98175773 -1.79503369 968.26006787 -3.72070312 968.5390625 C-42.6620836 973.94579962 -85.10857402 973.63466329 -124 968 C-125.40165861 967.80444293 -126.80335277 967.60914059 -128.20507812 967.4140625 C-172.99112365 961.0857077 -216.8420654 948.86104234 -258 930 C-259.04687988 929.52062988 -260.09375977 929.04125977 -261.17236328 928.54736328 C-296.88461903 912.05348911 -330.42411451 891.80685049 -361 867 C-361.97324219 866.22011719 -362.94648438 865.44023438 -363.94921875 864.63671875 C-369.25094568 860.35540788 -374.3884216 855.93387727 -379.41796875 851.3359375 C-380.78766248 850.09678946 -382.16258791 848.86252073 -383.57299805 847.66992188 C-390.2148403 842.02031418 -396.33811504 835.84796828 -402.49926758 829.68603516 C-404.42444702 827.76303818 -406.35749031 825.84819426 -408.29101562 823.93359375 C-414.61613067 817.63654558 -420.65499169 811.31413099 -426.17700195 804.29052734 C-427.95137417 802.06109649 -429.81345663 799.96394033 -431.75 797.875 C-489.73828749 733.2134572 -526.98810383 644.18000089 -544.203125 501.29296875 C-544.21018463 500.02152512 -544.21724426 498.75008148 -544.22451782 497.44010925 C-544.24405384 493.35590034 -544.24921009 489.27175126 -544.25 485.1875 C-544.25029457 484.49126778 -544.25058914 483.79503555 -544.25089264 483.07770538 C-544.25231742 462.23929084 -544.04665922 441.65863041 -541 421 C-540.85081116 419.96335205 -540.85081116 419.96335205 -540.6986084 418.90576172 C-536.13329442 387.2177327 -529.14541261 356.40159706 -519 326 C-518.64180176 324.92411621 -518.28360352 323.84823242 -517.91455078 322.73974609 C-497.80532897 263.07471862 -464.95798684 205.8046173 -422.1953125 159.40625 C-421.00726275 158.104046 -419.82616565 156.7945741 -418.6875 155.44897461 C-413.03184389 148.79949325 -406.85484369 142.6687595 -400.68603516 136.50073242 C-398.76303818 134.57555298 -396.84819426 132.64250969 -394.93359375 130.70898438 C-388.63654558 124.38386933 -382.31413099 118.34500831 -375.29052734 112.82299805 C-373.06109649 111.04862583 -370.96394033 109.18654337 -368.875 107.25 C-305.13267006 50.08605998 -218.98442423 14.34791811 -126.05786133 0.28710938 C-124.13075177 0.01824227 -122.20496631 -0.26006787 -120.27929688 -0.5390625 C-81.3379164 -5.94579962 -38.89142598 -5.63466329 0 0 Z " fill="#263A61" transform="translate(544,3)"/>
</svg>
